<svg width="255" height="192" viewBox="0 0 255 192" fill="none" xmlns="http://www.w3.org/2000/svg">
<path d="M56.5 185.5C60.9 186.3 72.6667 182.167 78 180L86 183C89.5 185.167 98.1 189.1 104.5 187.5C103.7 181.1 113.167 167.5 118 161.5L115.5 159.5C115.833 158.833 118.9 156.4 128.5 152C136.5 164.8 138.5 154.333 138.5 147.5H143.5L154 144.5V147.5H165L170.5 136L179.5 140L184 136L187 140L201 142L206 120C205.333 120 202.9 120.3 198.5 121.5C172.5 112.5 191.5 112 198.5 114C198.5 104 202.167 101.833 204 102L212.5 84H224.5L223 87.5H233C234.5 80.5 238.5 72 247.5 59.5C233.5 60 233 56 233 50.5C227 46.9 220.833 50.3333 218.5 52.5H204L198.5 57.5C197.167 54 193.4 47.1 189 47.5C184.6 47.9 178.167 51 175.5 52.5L166.5 49L175.5 34.5L168 23.5L156 17L150.5 5L144.5 8.5L120 10C117.833 13 113.1 18.3 111.5 15.5C103.5 15.5 100.167 19.5 99.5 21.5L91 19L80 21.5L74 17H50.5C45.5 19.3333 34.5 25.1 30.5 29.5C35 38 32.5 44 30.5 49C36.5 50.5 36 52 39 57.5C32.5 62 35 65.5 32.5 72C21.7 73.2 12.3333 77.5 9 79.5L14 84C14.5 85.6667 15.5 90.9 15.5 98.5C0.499996 103 3 112 7 115.5C2.6 129.1 10.8333 132.5 15.5 132.5L17 138.5L30.5 140C28.5 142 26.4 146.6 34 149C30 155.4 31.3333 158.667 32.5 159.5C32.8333 160.833 31.7 163.5 24.5 163.5C18.9 181.1 20.5 186.833 22 187.5C29.6667 185 47.3 181.1 56.5 185.5Z" fill="white" stroke="#0085FF" stroke-width="7"/>
<path d="M68.7422 48.9961L57.9141 82H49.1914L63.9844 42.1875H69.5352L68.7422 48.9961ZM77.7383 82L66.8828 48.9961L66.0078 42.1875H71.6133L86.4883 82H77.7383ZM77.2461 67.1797V73.6055H56.2188V67.1797H77.2461ZM106.859 74.918V52.4141H114.734V82H107.324L106.859 74.918ZM107.734 68.8477L110.059 68.793C110.059 70.7617 109.831 72.5938 109.375 74.2891C108.919 75.9661 108.236 77.4245 107.324 78.6641C106.413 79.8854 105.264 80.8424 103.879 81.5352C102.493 82.2096 100.862 82.5469 98.9844 82.5469C97.5443 82.5469 96.2135 82.3464 94.9922 81.9453C93.7891 81.526 92.75 80.8789 91.875 80.0039C91.0182 79.1107 90.3438 77.9714 89.8516 76.5859C89.3776 75.1823 89.1406 73.4961 89.1406 71.5273V52.4141H97.0156V71.582C97.0156 72.457 97.1159 73.1953 97.3164 73.7969C97.5352 74.3984 97.8359 74.8906 98.2188 75.2734C98.6016 75.6562 99.0482 75.9297 99.5586 76.0938C100.087 76.2578 100.671 76.3398 101.309 76.3398C102.931 76.3398 104.207 76.0117 105.137 75.3555C106.085 74.6992 106.75 73.806 107.133 72.6758C107.534 71.5273 107.734 70.2513 107.734 68.8477ZM128.625 58.8672V82H120.75V52.4141H128.16L128.625 58.8672ZM137.539 52.2227L137.402 59.5234C137.02 59.4688 136.555 59.4232 136.008 59.3867C135.479 59.332 134.996 59.3047 134.559 59.3047C133.447 59.3047 132.48 59.4505 131.66 59.7422C130.858 60.0156 130.184 60.4258 129.637 60.9727C129.108 61.5195 128.707 62.1849 128.434 62.9688C128.178 63.7526 128.033 64.6458 127.996 65.6484L126.41 65.1562C126.41 63.2422 126.602 61.4831 126.984 59.8789C127.367 58.2565 127.923 56.8438 128.652 55.6406C129.4 54.4375 130.311 53.5078 131.387 52.8516C132.462 52.1953 133.693 51.8672 135.078 51.8672C135.516 51.8672 135.962 51.9036 136.418 51.9766C136.874 52.0312 137.247 52.1133 137.539 52.2227Z" fill="#0085FF"/>
<path d="M80.5586 96.4062V122H75.2852V96.4062H80.5586ZM90.7539 107.34V111.453H79.1172V107.34H90.7539ZM91.9844 96.4062V100.537H79.1172V96.4062H91.9844ZM103.094 122.352C101.617 122.352 100.293 122.117 99.1211 121.648C97.9492 121.168 96.9531 120.506 96.1328 119.662C95.3242 118.818 94.7031 117.84 94.2695 116.727C93.8359 115.602 93.6191 114.406 93.6191 113.141V112.438C93.6191 110.996 93.8242 109.678 94.2344 108.482C94.6445 107.287 95.2305 106.25 95.9922 105.371C96.7656 104.492 97.7031 103.818 98.8047 103.35C99.9062 102.869 101.148 102.629 102.531 102.629C103.879 102.629 105.074 102.852 106.117 103.297C107.16 103.742 108.033 104.375 108.736 105.195C109.451 106.016 109.99 107 110.354 108.148C110.717 109.285 110.898 110.551 110.898 111.945V114.055H95.7812V110.68H105.924V110.293C105.924 109.59 105.795 108.963 105.537 108.412C105.291 107.85 104.916 107.404 104.412 107.076C103.908 106.748 103.264 106.584 102.479 106.584C101.811 106.584 101.236 106.73 100.756 107.023C100.275 107.316 99.8828 107.727 99.5781 108.254C99.2852 108.781 99.0625 109.402 98.9102 110.117C98.7695 110.82 98.6992 111.594 98.6992 112.438V113.141C98.6992 113.902 98.8047 114.605 99.0156 115.25C99.2383 115.895 99.5488 116.451 99.9473 116.92C100.357 117.389 100.85 117.752 101.424 118.01C102.01 118.268 102.672 118.396 103.41 118.396C104.324 118.396 105.174 118.221 105.959 117.869C106.756 117.506 107.441 116.961 108.016 116.234L110.477 118.906C110.078 119.48 109.533 120.031 108.842 120.559C108.162 121.086 107.342 121.52 106.381 121.859C105.42 122.188 104.324 122.352 103.094 122.352ZM122.535 122.352C121.059 122.352 119.734 122.117 118.562 121.648C117.391 121.168 116.395 120.506 115.574 119.662C114.766 118.818 114.145 117.84 113.711 116.727C113.277 115.602 113.061 114.406 113.061 113.141V112.438C113.061 110.996 113.266 109.678 113.676 108.482C114.086 107.287 114.672 106.25 115.434 105.371C116.207 104.492 117.145 103.818 118.246 103.35C119.348 102.869 120.59 102.629 121.973 102.629C123.32 102.629 124.516 102.852 125.559 103.297C126.602 103.742 127.475 104.375 128.178 105.195C128.893 106.016 129.432 107 129.795 108.148C130.158 109.285 130.34 110.551 130.34 111.945V114.055H115.223V110.68H125.365V110.293C125.365 109.59 125.236 108.963 124.979 108.412C124.732 107.85 124.357 107.404 123.854 107.076C123.35 106.748 122.705 106.584 121.92 106.584C121.252 106.584 120.678 106.73 120.197 107.023C119.717 107.316 119.324 107.727 119.02 108.254C118.727 108.781 118.504 109.402 118.352 110.117C118.211 110.82 118.141 111.594 118.141 112.438V113.141C118.141 113.902 118.246 114.605 118.457 115.25C118.68 115.895 118.99 116.451 119.389 116.92C119.799 117.389 120.291 117.752 120.865 118.01C121.451 118.268 122.113 118.396 122.852 118.396C123.766 118.396 124.615 118.221 125.4 117.869C126.197 117.506 126.883 116.961 127.457 116.234L129.918 118.906C129.52 119.48 128.975 120.031 128.283 120.559C127.604 121.086 126.783 121.52 125.822 121.859C124.861 122.188 123.766 122.352 122.535 122.352ZM144.455 117.852V95H149.553V122H144.965L144.455 117.852ZM132.432 112.719V112.35C132.432 110.896 132.596 109.578 132.924 108.395C133.252 107.199 133.732 106.174 134.365 105.318C134.998 104.463 135.777 103.801 136.703 103.332C137.629 102.863 138.684 102.629 139.867 102.629C140.98 102.629 141.953 102.863 142.785 103.332C143.629 103.801 144.344 104.469 144.93 105.336C145.527 106.191 146.008 107.205 146.371 108.377C146.734 109.537 146.998 110.809 147.162 112.191V113C146.998 114.324 146.734 115.555 146.371 116.691C146.008 117.828 145.527 118.824 144.93 119.68C144.344 120.523 143.629 121.18 142.785 121.648C141.941 122.117 140.957 122.352 139.832 122.352C138.648 122.352 137.594 122.111 136.668 121.631C135.754 121.15 134.98 120.477 134.348 119.609C133.727 118.742 133.252 117.723 132.924 116.551C132.596 115.379 132.432 114.102 132.432 112.719ZM137.494 112.35V112.719C137.494 113.504 137.553 114.236 137.67 114.916C137.799 115.596 138.004 116.199 138.285 116.727C138.578 117.242 138.953 117.646 139.41 117.939C139.879 118.221 140.447 118.361 141.115 118.361C141.982 118.361 142.697 118.168 143.26 117.781C143.822 117.383 144.25 116.838 144.543 116.146C144.848 115.455 145.023 114.658 145.07 113.756V111.453C145.035 110.715 144.93 110.053 144.754 109.467C144.59 108.869 144.344 108.359 144.016 107.938C143.699 107.516 143.301 107.188 142.82 106.953C142.352 106.719 141.795 106.602 141.15 106.602C140.494 106.602 139.932 106.754 139.463 107.059C138.994 107.352 138.613 107.756 138.32 108.271C138.039 108.787 137.828 109.396 137.688 110.1C137.559 110.791 137.494 111.541 137.494 112.35Z" fill="#0085FF"/>
</svg>
